<svg xmlns="http://www.w3.org/2000/svg" version="1.1" xmlns:xlink="http://www.w3.org/1999/xlink" xmlns:svgjs="http://svgjs.dev/svgjs" width="100%" height="100%" viewBox="0 0 1000 600"><rect width="1000" height="600" x="0" y="0" fill="#5c93e6"/><g><rect width="333.3333333333333" height="333.3333333333333" rx="13.333333333333334" ry="13.333333333333334" y="199.1788324142894" fill="#c2b280" transform="matrix(0.7063879973128768,0,0,0.7063879973128768,0,41.571144240584985)" x="176.9566650390625"/><path d="M298.75675497047047 429.0078857826663L298.75675497047047 429.0078857826663Q296.9115619402198 429.0078857826663 296.31542265352346 426.1407396895075L296.31542265352346 426.1407396895075L292.2276104018912 404.28229917730715Q291.80179662567946 401.61386617971385 290.69468080752904 396.1066746740426Q289.5591774042979 390.5710955832906 287.9410850546934 384.0419510147113L287.9410850546934 384.0419510147113Q285.2726520571001 384.8651909820539 281.29839014579096 386.9942598631124Q277.29574064940107 389.15171632925166 269.12011614613647 393.8356678675803L269.12011614613647 393.8356678675803Q261.96644470578 397.7247670236471 258.0773455497132 399.8822234897863Q254.21663397872715 402.01129237084484 251.54820098113387 403.7713226458532Q248.87976798354057 405.50296533578074 245.01905641255456 407.9442976527278L245.01905641255456 407.9442976527278Q243.99710334964647 411.010156841452 242.74804960609217 415.29668218864975Q241.52738344761866 419.61159512092826 240.30671728914513 423.4723066919143L240.30671728914513 423.4723066919143Q239.0860511306716 426.9639796568502 237.04214500485546 426.9639796568502L237.04214500485546 426.9639796568502Q233.97628581613125 426.9639796568502 233.97628581613125 422.4503536290062L233.97628581613125 422.4503536290062Q233.97628581613125 421.85421434230983 234.0614485713736 421.2296874705326Q234.17499891169672 420.63354818383624 234.37371200726216 420.00902131205913L234.37371200726216 420.00902131205913L237.43957119598636 410.8114437458865Q236.4176181330783 409.1649638112013 236.4176181330783 408.1430107482932L236.4176181330783 408.1430107482932Q236.4176181330783 407.1210576853851 237.04214500485546 406.52491839868884L237.04214500485546 406.52491839868884L237.04214500485546 406.32620530312334Q237.04214500485546 403.65777230553005 240.50543038471056 401.41515308414847L240.50543038471056 401.41515308414847Q241.7260965431841 398.7467200865552 242.74804960609217 396.5041008651736L242.74804960609217 396.5041008651736L242.74804960609217 396.5041008651736Q242.5493365105267 396.5041008651736 243.3725764778693 393.750505112338Q244.19581644521193 390.99690935950235 246.83586185772444 382.8212848562378L246.83586185772444 382.8212848562378L252.96758023517285 364.8235559150234Q254.61406016985808 360.111216791614 256.85667939123965 352.5601191601266Q259.0992986126213 345.00902152863927 262.5909715775572 334.3636771233468L262.5909715775572 334.3636771233468L262.98839776868806 333.76753783665043L268.29687617879387 320.8795742099765Q268.72268995500554 318.8356680841604 269.82980577315595 315.4575454595476Q270.96530917638717 312.0794228349348 272.38468843042614 307.59418439217166L272.38468843042614 307.59418439217166Q272.6117891110724 306.57223132926356 272.8956649618802 305.55027826635546Q273.2079283977688 304.52832520344737 273.4066414933342 303.70508523610476L273.4066414933342 303.70508523610476Q274.4285945562423 300.0430867606842 276.0750744909275 299.0211336977761L276.0750744909275 299.0211336977761Q276.89831445827014 298.59531992156445 277.4944537449665 298.59531992156445L277.4944537449665 298.59531992156445Q279.53835987078264 298.59531992156445 280.8725763695793 301.3489156744001Q282.20679286837594 304.1308990123165 282.00807977281045 305.9477044574864L282.00807977281045 305.9477044574864Q283.228745931284 310.66004358089583 284.4494120897575 317.3027384897983Q285.67007824823105 323.9454333987007 287.1178450873508 332.3197709975307L287.1178450873508 332.3197709975307L287.31655818291625 332.94429786930783Q288.3385112458243 335.5843432818204 288.96303811760146 339.4734424378872Q289.5591774042979 343.36254159395395 290.183704276075 348.4723069084943L290.183704276075 348.4723069084943L292.82374968858755 373.19789351385344L295.69089578174624 371.97722735537997Q296.11670955795796 371.7785142598145 296.9115619402198 371.7785142598145L296.9115619402198 371.7785142598145Q299.38128184224763 371.7785142598145 299.38128184224763 376.4624657981431L299.38128184224763 376.4624657981431Q299.38128184224763 378.5063719239592 298.55804187490503 379.5283249868673Q297.7348019075624 380.5502780497754 297.3373757164315 380.9760918259871L297.3373757164315 380.9760918259871L293.8457027514956 382.59418417559147Q294.0728034321418 383.4174241429342 294.5837799635958 385.46133026875026Q295.09475649504986 387.50523639456645 295.88960887731173 390.99690935950235L295.88960887731173 390.99690935950235L298.35932877933953 400.98933930793675Q299.38128184224763 404.87843846400364 300.40323490515567 410.30046721443244Q301.42518796806377 415.72249596486137 302.4471410309718 422.4503536290062L302.4471410309718 422.4503536290062Q302.84456722210274 425.1187866265995 301.6239010636292 427.0491424120925Q300.40323490515567 429.0078857826663 298.75675497047047 429.0078857826663ZM249.30558175975227 396.3053877696081L249.30558175975227 396.3053877696081Q249.50429485531774 396.1066746740426 253.08113057549596 394.14793130346885Q256.6579662956742 392.21757551797583 261.88128195053764 389.35042942481704Q267.07621002032033 386.48328333165836 272.38468843042614 383.61613723849956Q277.72155442561274 380.7773787304216 281.6958163369219 378.61992226428237Q285.67007824823105 376.4624657981431 286.49331821557365 376.06503960701224L286.49331821557365 376.06503960701224Q286.49331821557365 375.04308654410414 286.4081554603313 373.62370729006517Q286.2946051200082 372.17594045094535 286.0958920244427 370.13203432512927L286.0958920244427 370.13203432512927Q285.67007824823105 365.4480827868006 284.96038862121156 360.6221933230681Q284.250698994192 355.82469144441626 283.4274590268494 351.1407399060876L283.4274590268494 351.1407399060876L281.18483980546785 336.2088701535975Q280.5603129336907 331.4965310301881 278.11898061674367 320.0563342426339L278.11898061674367 320.0563342426339L276.89831445827014 314.54914273696266Q276.273787586493 315.96852199100164 275.36538486390805 318.43824189302944Q274.4285945562423 320.8795742099765 273.2079283977688 324.34285958983156L273.2079283977688 324.34285958983156L267.89944998766293 338.2527762794137Q266.48007073362396 342.73801472217684 264.2090639271616 350.1187868431795Q261.96644470578 357.47117137910146 258.5031593259249 368.0881281993131L258.5031593259249 368.0881281993131Q254.4153470742926 380.7773787304216 252.57015404404194 386.5968336719814Q250.72496101379124 392.4162886135413 250.12882172709487 394.14793130346885Q249.50429485531774 395.8795739933964 249.30558175975227 396.3053877696081ZM341.4800705170438 321.5041010817536L341.4800705170438 321.5041010817536Q340.45811745413585 321.5041010817536 339.63487748679324 320.16988458295697Q338.81163751945064 318.8356680841604 338.81163751945064 316.99047505390973L338.81163751945064 316.99047505390973Q338.81163751945064 313.52718967405457 341.6787836126093 310.66004358089583L341.6787836126093 310.66004358089583L341.6787836126093 310.85875667646127L350.2802218920856 304.1308990123165Q354.5667472392833 301.2637529191577 360.0739387449546 299.6172729844725L360.0739387449546 299.6172729844725Q360.8971787122972 299.41855988890705 363.1397979336788 299.30500954858394Q365.38241715506035 299.2198467933416 369.07280321556175 299.2198467933416L369.07280321556175 299.2198467933416Q370.2934693740352 299.2198467933416 373.9838554345366 297.5733668586564L373.9838554345366 297.5733668586564Q377.0497146232608 296.15398760461744 379.49104694020787 296.15398760461744L379.49104694020787 296.15398760461744Q382.75561922449754 296.15398760461744 385.8214784132217 297.9991806348681L385.8214784132217 297.9991806348681L390.5338175366312 300.6392260473806Q392.5777236624473 301.85989220585407 392.5777236624473 304.92575139457836L392.5777236624473 304.92575139457836Q392.5777236624473 306.96965752039443 391.66932093986236 308.92840089096825Q390.7325306321966 310.85875667646127 389.1144382825922 310.85875667646127L389.1144382825922 310.85875667646127Q387.8653845390379 310.85875667646127 383.3801460962747 307.59418439217166L383.3801460962747 307.59418439217166Q381.13752687489307 305.9477044574864 379.093620749077 305.9477044574864L379.093620749077 305.9477044574864Q377.2484277188263 305.9477044574864 375.4032346885756 306.770944424829L375.4032346885756 306.770944424829Q372.9619023716285 307.59418439217166 370.4921824696007 307.99161058330253L370.4921824696007 307.99161058330253L369.2715163111272 308.81485055064513L369.2715163111272 308.61613745507964Q365.38241715506035 308.61613745507964 359.8752256493891 310.46133048533034L359.8752256493891 310.46133048533034Q359.0519856820465 310.66004358089583 357.0080795562303 311.36973320791526Q354.96417343041423 312.0794228349348 351.89831424169006 313.10137589784284L351.89831424169006 313.10137589784284Q351.3021749549937 313.3284765784891 349.6556950203085 314.634305492205Q348.0092150856232 315.96852199100164 345.3691696731107 318.2111412123832L345.3691696731107 318.2111412123832L342.8994497710829 320.8795742099765Q342.30331048438654 321.5041010817536 341.4800705170438 321.5041010817536ZM342.7007366755174 431.05179190848247L342.7007366755174 431.05179190848247Q336.569018298069 437.5809364770617 330.63601301618604 439.227416411747L330.63601301618604 439.227416411747Q331.4592529835287 439.4261295073124 330.03987372948967 439.4261295073124L330.03987372948967 439.4261295073124L329.614059953278 439.4261295073124Q329.614059953278 439.4261295073124 329.72761029360106 439.4261295073124Q329.84116063392423 439.4261295073124 330.63601301618604 439.227416411747L330.63601301618604 439.227416411747Q329.84116063392423 438.8016026355353 326.97401454076544 438.2054633488389Q324.10686844760676 437.5809364770617 320.8422961633171 436.24671997826516Q317.5777238790274 434.94089106454925 315.7325308487767 433.09569803429855L315.7325308487767 433.09569803429855L315.1080039769996 432.47117116252144Q310.4240524386709 427.7872196241928 307.95433253664305 420.63354818383624L307.95433253664305 420.63354818383624Q307.13109256930045 417.96511518624305 306.421402942281 415.4102325289728Q305.7117133152615 412.8553498717027 305.7117133152615 410.1869168741094L305.7117133152615 410.1869168741094Q305.7117133152615 407.7455845571623 306.932379473735 406.0139418672348Q308.15304563220855 404.28229917730715 309.6008124713283 404.28229917730715L309.6008124713283 404.28229917730715Q311.44600550157895 404.28229917730715 312.0421447882753 407.1210576853851L312.0421447882753 407.1210576853851Q313.48991162739514 411.8333968087946 315.02284122175723 416.4321855918809Q316.5557708161193 421.03097437496723 320.0190561959745 424.4942597548223L320.0190561959745 424.4942597548223Q324.93010841494936 429.40531197379715 328.81920757101614 429.40531197379715L328.81920757101614 429.40531197379715Q332.9070198226484 429.40531197379715 338.61292442388515 423.0748805007833L338.61292442388515 423.0748805007833Q340.25940435857035 421.4284005660981 341.6787836126093 418.98706824915104Q343.1265504517291 416.5457359322041 343.9214028339909 413.6785898390453L343.9214028339909 413.6785898390453L348.0092150856232 400.1944869256749Q349.2582688291775 396.3053877696081 350.9899115191051 388.12976326634356Q352.72155420903266 379.954138763079 354.96417343041423 367.4919889126167L354.96417343041423 367.4919889126167Q356.41194026953406 359.71379060048315 357.71776918324986 350.5162130343105Q359.0519856820465 341.31863546813787 360.0739387449546 330.90039174349175L360.0739387449546 330.90039174349175Q360.27265184052004 329.45262490437193 360.6984656167317 325.6770760886282Q361.0958918078627 321.9015272728846 361.5217055840743 315.96852199100164L361.5217055840743 315.96852199100164Q361.9191317752053 310.66004358089583 365.1837040594949 310.66004358089583L365.1837040594949 310.66004358089583Q369.07280321556175 310.66004358089583 368.4482763437846 316.1672350865671L368.4482763437846 316.1672350865671L367.02889708974556 331.4965310301881Q366.20565712240295 341.51734856370337 364.786277868364 350.9136392254414Q363.3385110292443 360.33831747226026 361.7204186796398 369.1100812622212L361.7204186796398 369.1100812622212L358.65455949091563 386.28457023609286Q357.83131952357303 390.769808678856 356.61065336509944 395.0847216111346Q355.38998720662596 399.3712469583323 353.74350727194076 403.65777230553005L353.74350727194076 403.65777230553005L349.456981924743 418.36254137737393Q346.5898358315842 426.5381658806385 342.7007366755174 431.05179190848247ZM388.6886245063805 440.84550876135137L388.6886245063805 440.84550876135137Q387.6666714434724 440.84550876135137 386.7582687208875 440.76034600610905Q385.8214784132217 440.646795665786 385.0266260309599 440.4480825702205L385.0266260309599 440.4480825702205L378.0716676861689 436.9847971903653Q376.4251877514837 436.1615572230227 376.4251877514837 433.4931242254294L376.4251877514837 433.4931242254294Q376.4251877514837 427.7872196241928 379.9168607164196 427.7872196241928L379.9168607164196 427.7872196241928Q380.9388137793276 427.7872196241928 383.18143300070926 429.40531197379715L383.18143300070926 429.40531197379715Q385.42405222209084 431.05179190848247 386.24729218943344 431.05179190848247L386.24729218943344 431.05179190848247L386.44600528499893 431.05179190848247Q388.2911983152496 431.05179190848247 391.55577059953924 430.853078812917Q394.82034288382886 430.62597813227075 399.7313951028038 429.40531197379715L399.7313951028038 429.40531197379715Q411.37030498592344 426.339452785073 422.4130755823468 418.98706824915104L422.4130755823468 418.98706824915104Q424.25826861259736 417.76640209067756 438.56561149331037 403.45905920996455L438.56561149331037 403.45905920996455Q439.58756455621847 401.81257927527935 440.80823071469194 399.2576966180092Q442.02889687316554 396.702813960739 443.47666371228524 393.2395285808839L443.47666371228524 393.2395285808839Q443.67537680785074 390.769808678856 438.56561149331037 383.8432379191458L438.56561149331037 383.8432379191458Q434.8752254328091 378.9321857001709 434.2790861461126 378.3076588283938L434.2790861461126 378.3076588283938Q433.4558461787701 377.71151954169744 432.2351800202965 376.88827957435484Q431.014513861823 376.06503960701224 428.97060773600685 375.24179963966964L428.97060773600685 375.24179963966964L425.9047485472826 373.82242038563055L423.2363155496893 374.02113348119605Q421.5898356150041 372.99918041828795 419.1485032980571 372.80046732272257L419.1485032980571 372.80046732272257Q416.0826441093329 372.80046732272257 414.23745107908223 371.97722735537997L414.23745107908223 371.97722735537997Q413.4142111117396 371.7785142598145 412.19354495326604 371.35270048360275L412.19354495326604 371.35270048360275Q410.14963882744996 370.5578481013409 409.75221263631903 368.0881281993131L409.75221263631903 368.0881281993131L409.5534995407536 367.8894151037477Q409.3263988601073 365.4480827868006 411.37030498592344 359.71379060048315L411.37030498592344 359.71379060048315Q413.64131179238586 358.29441134644406 416.4800703004638 356.4492183161935Q419.34721639362255 354.6040252859428 423.0376024541239 352.1626929689957L423.0376024541239 352.1626929689957Q424.8827954843746 351.1407399060876 427.83510433277564 349.18199653551386Q430.78741318117676 347.25164075002084 434.4777992416781 343.98706846573117L434.4777992416781 343.98706846573117L437.94108462153326 340.921209277007Q438.1681853021795 340.69410859636076 439.4740142158953 339.7857058737757Q440.80823071469194 338.8773031511908 441.43275758646917 337.2308232165056L441.43275758646917 337.2308232165056L443.47666371228524 334.1649640277814L444.49861677519334 332.3197709975307Q445.7192829336668 330.07715177614915 445.7192829336668 329.45262490437193L445.7192829336668 329.45262490437193L445.0947560618897 325.5919133333859L445.0947560618897 325.36481265273966Q445.0947560618897 324.1441464942662 442.65342374494264 323.3209065269236L442.65342374494264 323.3209065269236Q438.1681853021795 322.10024036845 437.1462322392714 321.5041010817536L437.1462322392714 321.5041010817536Q435.4997523045862 320.4821480188456 431.4119400529539 318.52340464827176Q427.3241278013216 316.59304886277874 420.9936963283078 313.72590276962L420.9936963283078 313.72590276962Q411.171591890358 309.24066432685686 405.46568728912126 304.52832520344737L405.46568728912126 304.52832520344737Q403.6204942588706 302.88184526876216 400.5546350701464 299.2198467933416L400.5546350701464 299.2198467933416Q399.33396891167286 298.1978937304335 399.33396891167286 296.15398760461744L399.33396891167286 296.15398760461744Q399.33396891167286 294.30879457436674 400.5546350701464 292.57715188443916Q401.7753012286199 290.8455091945116 402.99596738709346 290.8455091945116L402.99596738709346 290.8455091945116Q403.4217811633051 290.8455091945116 404.216633545567 291.24293538564257L404.216633545567 291.24293538564257Q406.6863534475948 293.0881284158932 408.73025957341093 296.15398760461744L408.73025957341093 296.15398760461744Q411.59740566656967 297.3746537630909 418.52397642627994 302.2857059820658L418.52397642627994 302.2857059820658L420.3691694565306 303.3076590449739Q423.2363155496893 304.72703829901286 432.03646692473103 308.21871126394876L432.03646692473103 308.21871126394876Q438.76432458887587 311.0574697720267 440.80823071469194 313.10137589784284L440.80823071469194 313.10137589784284L448.3877159312601 317.81371502125234Q453.27038056515426 320.8795742099765 453.27038056515426 325.36481265273966L453.27038056515426 325.36481265273966Q453.27038056515426 330.07715177614915 448.9838552179566 337.34437355682866Q444.69732987075884 344.58320775242754 437.3449453348369 351.736879192784L437.3449453348369 351.736879192784Q435.89717849571707 353.1846460319038 432.8313193069929 355.2285521577199Q429.7654601182687 357.2724582835361 425.0815085799401 360.53703056782575L425.0815085799401 360.53703056782575L420.3691694565306 363.8016028521154Q422.61178867791216 363.8016028521154 427.5228408968871 365.0222690105889L427.5228408968871 365.0222690105889Q438.1681853021795 369.30879435778667 442.85213684050814 377.0869926699202L442.85213684050814 377.0869926699202L447.9619021550485 382.59418417559147Q451.0277613437727 386.9090971078701 450.4316220570763 393.4382416764493L450.4316220570763 393.4382416764493Q450.2045213764301 398.1505807998588 447.5644759639175 402.63581924262195L447.5644759639175 402.63581924262195L443.67537680785074 408.9662507156358L443.47666371228524 409.590777587413Q440.41080452356107 412.8553498717027 435.81201574047475 417.4541386547889Q431.21322695738843 422.0529274378752 424.8827954843746 427.9859327197582L424.8827954843746 427.9859327197582Q413.4142111117396 436.5589834141537 400.5546350701464 439.227416411747L400.5546350701464 439.227416411747Q396.86424900964505 440.0506563790896 393.91194016124393 440.4480825702205Q390.9312437277621 440.84550876135137 388.6886245063805 440.84550876135137ZM392.9751498535782 409.9882037785439L392.9751498535782 409.9882037785439Q391.1583444084083 409.9882037785439 390.1363913455002 406.52491839868884L390.1363913455002 406.52491839868884Q390.1363913455002 405.7016784313461 389.909290664854 404.3674619325496Q389.71057756928855 403.03324543375294 389.3131513781576 400.98933930793675L389.3131513781576 400.98933930793675Q388.88733760194594 398.94543318212067 388.6034617511381 397.3273408325162Q388.2911983152496 395.680860897831 388.489911410815 394.2614816437919L388.489911410815 394.2614816437919Q388.2911983152496 393.6369547720148 388.2911983152496 393.04081548531843Q388.2911983152496 392.4162886135413 388.2911983152496 391.7917617417641L388.2911983152496 391.7917617417641Q388.2911983152496 390.769808678856 388.37636107049195 389.8614059562711Q388.489911410815 388.95300323368616 388.6886245063805 387.93105017077806L388.6886245063805 387.93105017077806Q389.3131513781576 383.2187110473687 389.3131513781576 381.5722311126835L389.3131513781576 381.5722311126835Q389.3131513781576 380.7773787304216 389.909290664854 378.42120916871687Q390.5338175366312 376.06503960701224 391.55577059953924 371.97722735537997L391.55577059953924 371.97722735537997Q393.20225053422445 366.2429351690624 394.2242035971325 361.1331698545221Q395.2461566600406 356.02340453998175 396.04100904230245 351.3394530016531L396.04100904230245 351.3394530016531Q396.86424900964505 348.07488071736344 397.80103931731077 342.73801472217684Q398.70944203989575 337.4295363120711 399.9301081983692 330.27586487171453L399.9301081983692 330.27586487171453Q400.1288212939347 327.8345325547676 400.866898506035 323.43445686724664Q401.57658813305443 319.0343811797258 402.797254291528 312.70394970671197L402.797254291528 312.70394970671197Q404.0179204500015 307.59418439217166 406.8850665431603 307.59418439217166L406.8850665431603 307.59418439217166Q409.12768576454187 307.59418439217166 409.12768576454187 310.66004358089583L409.12768576454187 310.66004358089583Q409.12768576454187 311.28457045267294 409.12768576454187 311.88070973936937Q409.12768576454187 312.5052366111465 408.92897266897637 313.10137589784284L408.92897266897637 313.10137589784284Q408.92897266897637 315.14528202365904 407.70830651050284 321.9015272728846L407.70830651050284 321.9015272728846L406.06182657581763 330.90039174349175Q405.46568728912126 337.2308232165056 397.48877588142216 374.4185596723269L397.48877588142216 374.4185596723269Q396.66553591407956 377.0869926699202 395.6435828511715 382.1967579844606L395.6435828511715 382.1967579844606Q394.82034288382886 385.46133026875026 395.01905597939435 392.6150017091067L395.01905597939435 392.6150017091067Q395.01905597939435 393.6369547720148 395.3313194152829 396.3905505248504Q395.6435828511715 399.1725338627669 396.04100904230245 403.65777230553005L396.04100904230245 403.65777230553005L396.04100904230245 405.30425224021525Q396.04100904230245 409.9882037785439 392.9751498535782 409.9882037785439Z " fill="#072c50" transform="matrix(0.7063879973128768,0,0,0.7063879973128768,0,41.571144240584985)"/><path d="M658.4037962912712 429.0078857826663L658.4037962912712 429.0078857826663Q656.5586032610206 429.0078857826663 655.9624639743242 426.1407396895075L655.9624639743242 426.1407396895075L651.8746517226919 404.28229917730715Q651.4488379464802 401.61386617971385 650.3417221283298 396.1066746740426Q649.2062187250986 390.5710955832906 647.5881263754942 384.0419510147113L647.5881263754942 384.0419510147113Q644.9196933779009 384.8651909820539 640.9454314665918 386.9942598631124Q636.9427819702018 389.15171632925166 628.7671574669373 393.8356678675803L628.7671574669373 393.8356678675803Q621.6134860265809 397.7247670236471 617.724386870514 399.8822234897863Q613.8636752995279 402.01129237084484 611.1952423019346 403.7713226458532Q608.5268093043414 405.50296533578074 604.6660977333554 407.9442976527278L604.6660977333554 407.9442976527278Q603.6441446704473 411.010156841452 602.395090926893 415.29668218864975Q601.1744247684194 419.61159512092826 599.9537586099459 423.4723066919143L599.9537586099459 423.4723066919143Q598.7330924514724 426.9639796568502 596.6891863256562 426.9639796568502L596.6891863256562 426.9639796568502Q593.623327136932 426.9639796568502 593.623327136932 422.4503536290062L593.623327136932 422.4503536290062Q593.623327136932 421.85421434230983 593.7084898921744 421.2296874705326Q593.8220402324976 420.63354818383624 594.0207533280629 420.00902131205913L594.0207533280629 420.00902131205913L597.0866125167872 410.8114437458865Q596.0646594538791 409.1649638112013 596.0646594538791 408.1430107482932L596.0646594538791 408.1430107482932Q596.0646594538791 407.1210576853851 596.6891863256562 406.52491839868884L596.6891863256562 406.52491839868884L596.6891863256562 406.32620530312334Q596.6891863256562 403.65777230553005 600.1524717055113 401.41515308414847L600.1524717055113 401.41515308414847Q601.3731378639849 398.7467200865552 602.395090926893 396.5041008651736L602.395090926893 396.5041008651736L602.395090926893 396.5041008651736Q602.1963778313275 396.5041008651736 603.0196177986701 393.750505112338Q603.8428577660127 390.99690935950235 606.4829031785252 382.8212848562378L606.4829031785252 382.8212848562378L612.6146215559736 364.8235559150234Q614.2611014906588 360.111216791614 616.5037207120404 352.5601191601266Q618.7463399334221 345.00902152863927 622.238012898358 334.3636771233468L622.238012898358 334.3636771233468L622.6354390894888 333.76753783665043L627.9439174995946 320.8795742099765Q628.3697312758063 318.8356680841604 629.4768470939567 315.4575454595476Q630.6123504971879 312.0794228349348 632.031729751227 307.59418439217166L632.031729751227 307.59418439217166Q632.2588304318731 306.57223132926356 632.5427062826809 305.55027826635546Q632.8549697185695 304.52832520344737 633.0536828141351 303.70508523610476L633.0536828141351 303.70508523610476Q634.075635877043 300.0430867606842 635.7221158117283 299.0211336977761L635.7221158117283 299.0211336977761Q636.5453557790709 298.59531992156445 637.1414950657672 298.59531992156445L637.1414950657672 298.59531992156445Q639.1854011915834 298.59531992156445 640.5196176903801 301.3489156744001Q641.8538341891767 304.1308990123165 641.6551210936112 305.9477044574864L641.6551210936112 305.9477044574864Q642.8757872520848 310.66004358089583 644.0964534105583 317.3027384897983Q645.3171195690318 323.9454333987007 646.7648864081516 332.3197709975307L646.7648864081516 332.3197709975307L646.963599503717 332.94429786930783Q647.9855525666251 335.5843432818204 648.6100794384022 339.4734424378872Q649.2062187250986 343.36254159395395 649.8307455968758 348.4723069084943L649.8307455968758 348.4723069084943L652.4707910093882 373.19789351385344L655.337937102547 371.97722735537997Q655.7637508787587 371.7785142598145 656.5586032610206 371.7785142598145L656.5586032610206 371.7785142598145Q659.0283231630484 371.7785142598145 659.0283231630484 376.4624657981431L659.0283231630484 376.4624657981431Q659.0283231630484 378.5063719239592 658.2050831957058 379.5283249868673Q657.3818432283632 380.5502780497754 656.9844170372323 380.9760918259871L656.9844170372323 380.9760918259871L653.4927440722963 382.59418417559147Q653.7198447529427 383.4174241429342 654.2308212843966 385.46133026875026Q654.7417978158506 387.50523639456645 655.5366501981125 390.99690935950235L655.5366501981125 390.99690935950235L658.0063701001403 400.98933930793675Q659.0283231630484 404.87843846400364 660.0502762259564 410.30046721443244Q661.0722292888645 415.72249596486137 662.0941823517726 422.4503536290062L662.0941823517726 422.4503536290062Q662.4916085429036 425.1187866265995 661.27094238443 427.0491424120925Q660.0502762259564 429.0078857826663 658.4037962912712 429.0078857826663ZM608.952623080553 396.3053877696081L608.952623080553 396.3053877696081Q609.1513361761185 396.1066746740426 612.7281718962968 394.14793130346885Q616.305007616475 392.21757551797583 621.5283232713384 389.35042942481704Q626.7232513411211 386.48328333165836 632.031729751227 383.61613723849956Q637.3685957464136 380.7773787304216 641.3428576577227 378.61992226428237Q645.3171195690318 376.4624657981431 646.1403595363745 376.06503960701224L646.1403595363745 376.06503960701224Q646.1403595363745 375.04308654410414 646.055196781132 373.62370729006517Q645.941646440809 372.17594045094535 645.7429333452435 370.13203432512927L645.7429333452435 370.13203432512927Q645.3171195690318 365.4480827868006 644.6074299420123 360.6221933230681Q643.8977403149929 355.82469144441626 643.0745003476502 351.1407399060876L643.0745003476502 351.1407399060876L640.8318811262686 336.2088701535975Q640.2073542544915 331.4965310301881 637.7660219375445 320.0563342426339L637.7660219375445 320.0563342426339L636.5453557790709 314.54914273696266Q635.9208289072938 315.96852199100164 635.0124261847088 318.43824189302944Q634.075635877043 320.8795742099765 632.8549697185695 324.34285958983156L632.8549697185695 324.34285958983156L627.5464913084637 338.2527762794137Q626.1271120544247 342.73801472217684 623.8561052479624 350.1187868431795Q621.6134860265809 357.47117137910146 618.1502006467257 368.0881281993131L618.1502006467257 368.0881281993131Q614.0623883950934 380.7773787304216 612.2171953648427 386.5968336719814Q610.372002334592 392.4162886135413 609.7758630478957 394.14793130346885Q609.1513361761185 395.8795739933964 608.952623080553 396.3053877696081ZM701.1271118378446 321.5041010817536L701.1271118378446 321.5041010817536Q700.1051587749366 321.5041010817536 699.281918807594 320.16988458295697Q698.4586788402514 318.8356680841604 698.4586788402514 316.99047505390973L698.4586788402514 316.99047505390973Q698.4586788402514 313.52718967405457 701.3258249334101 310.66004358089583L701.3258249334101 310.66004358089583L701.3258249334101 310.85875667646127L709.9272632128864 304.1308990123165Q714.2137885600841 301.2637529191577 719.7209800657554 299.6172729844725L719.7209800657554 299.6172729844725Q720.544220033098 299.41855988890705 722.7868392544796 299.30500954858394Q725.0294584758611 299.2198467933416 728.7198445363625 299.2198467933416L728.7198445363625 299.2198467933416Q729.940510694836 299.2198467933416 733.6308967553374 297.5733668586564L733.6308967553374 297.5733668586564Q736.6967559440616 296.15398760461744 739.1380882610086 296.15398760461744L739.1380882610086 296.15398760461744Q742.4026605452983 296.15398760461744 745.4685197340225 297.9991806348681L745.4685197340225 297.9991806348681L750.180858857432 300.6392260473806Q752.2247649832481 301.85989220585407 752.2247649832481 304.92575139457836L752.2247649832481 304.92575139457836Q752.2247649832481 306.96965752039443 751.3163622606631 308.92840089096825Q750.3795719529974 310.85875667646127 748.761479603393 310.85875667646127L748.761479603393 310.85875667646127Q747.5124258598387 310.85875667646127 743.0271874170754 307.59418439217166L743.0271874170754 307.59418439217166Q740.7845681956939 305.9477044574864 738.7406620698778 305.9477044574864L738.7406620698778 305.9477044574864Q736.8954690396271 305.9477044574864 735.0502760093764 306.770944424829L735.0502760093764 306.770944424829Q732.6089436924293 307.59418439217166 730.1392237904015 307.99161058330253L730.1392237904015 307.99161058330253L728.9185576319279 308.81485055064513L728.9185576319279 308.61613745507964Q725.0294584758611 308.61613745507964 719.5222669701899 310.46133048533034L719.5222669701899 310.46133048533034Q718.6990270028473 310.66004358089583 716.6551208770311 311.36973320791526Q714.611214751215 312.0794228349348 711.5453555624908 313.10137589784284L711.5453555624908 313.10137589784284Q710.9492162757945 313.3284765784891 709.3027363411093 314.634305492205Q707.656256406424 315.96852199100164 705.0162109939115 318.2111412123832L705.0162109939115 318.2111412123832L702.5464910918837 320.8795742099765Q701.9503518051873 321.5041010817536 701.1271118378446 321.5041010817536ZM702.3477779963182 431.05179190848247L702.3477779963182 431.05179190848247Q696.2160596188697 437.5809364770617 690.2830543369868 439.227416411747L690.2830543369868 439.227416411747Q691.1062943043295 439.4261295073124 689.6869150502904 439.4261295073124L689.6869150502904 439.4261295073124L689.2611012740788 439.4261295073124Q689.2611012740788 439.4261295073124 689.3746516144018 439.4261295073124Q689.488201954725 439.4261295073124 690.2830543369868 439.227416411747L690.2830543369868 439.227416411747Q689.488201954725 438.8016026355353 686.6210558615662 438.2054633488389Q683.7539097684075 437.5809364770617 680.4893374841179 436.24671997826516Q677.2247651998282 434.94089106454925 675.3795721695775 433.09569803429855L675.3795721695775 433.09569803429855L674.7550452978003 432.47117116252144Q670.0710937594718 427.7872196241928 667.6013738574438 420.63354818383624L667.6013738574438 420.63354818383624Q666.7781338901012 417.96511518624305 666.0684442630818 415.4102325289728Q665.3587546360623 412.8553498717027 665.3587546360623 410.1869168741094L665.3587546360623 410.1869168741094Q665.3587546360623 407.7455845571623 666.5794207945357 406.0139418672348Q667.8000869530093 404.28229917730715 669.247853792129 404.28229917730715L669.247853792129 404.28229917730715Q671.0930468223797 404.28229917730715 671.6891861090761 407.1210576853851L671.6891861090761 407.1210576853851Q673.1369529481959 411.8333968087946 674.6698825425581 416.4321855918809Q676.2028121369201 421.03097437496723 679.6660975167752 424.4942597548223L679.6660975167752 424.4942597548223Q684.5771497357501 429.40531197379715 688.4662488918169 429.40531197379715L688.4662488918169 429.40531197379715Q692.5540611434492 429.40531197379715 698.2599657446859 423.0748805007833L698.2599657446859 423.0748805007833Q699.9064456793711 421.4284005660981 701.3258249334101 418.98706824915104Q702.7735917725299 416.5457359322041 703.5684441547917 413.6785898390453L703.5684441547917 413.6785898390453L707.656256406424 400.1944869256749Q708.9053101499783 396.3053877696081 710.6369528399058 388.12976326634356Q712.3685955298334 379.954138763079 714.611214751215 367.4919889126167L714.611214751215 367.4919889126167Q716.0589815903348 359.71379060048315 717.3648105040506 350.5162130343105Q718.6990270028473 341.31863546813787 719.7209800657554 330.90039174349175L719.7209800657554 330.90039174349175Q719.9196931613209 329.45262490437193 720.3455069375325 325.6770760886282Q720.7429331286634 321.9015272728846 721.1687469048751 315.96852199100164L721.1687469048751 315.96852199100164Q721.5661730960061 310.66004358089583 724.8307453802958 310.66004358089583L724.8307453802958 310.66004358089583Q728.7198445363625 310.66004358089583 728.0953176645853 316.1672350865671L728.0953176645853 316.1672350865671L726.6759384105463 331.4965310301881Q725.8526984432037 341.51734856370337 724.4333191891648 350.9136392254414Q722.985552350045 360.33831747226026 721.3674600004406 369.1100812622212L721.3674600004406 369.1100812622212L718.3016008117164 386.28457023609286Q717.4783608443737 390.769808678856 716.2576946859002 395.0847216111346Q715.0370285274267 399.3712469583323 713.3905485927414 403.65777230553005L713.3905485927414 403.65777230553005L709.1040232455438 418.36254137737393Q706.236877152385 426.5381658806385 702.3477779963182 431.05179190848247ZM748.3356658271813 440.84550876135137L748.3356658271813 440.84550876135137Q747.3137127642732 440.84550876135137 746.4053100416883 440.76034600610905Q745.4685197340225 440.646795665786 744.6736673517606 440.4480825702205L744.6736673517606 440.4480825702205L737.7187090069697 436.9847971903653Q736.0722290722845 436.1615572230227 736.0722290722845 433.4931242254294L736.0722290722845 433.4931242254294Q736.0722290722845 427.7872196241928 739.5639020372204 427.7872196241928L739.5639020372204 427.7872196241928Q740.5858551001284 427.7872196241928 742.82847432151 429.40531197379715L742.82847432151 429.40531197379715Q745.0710935428916 431.05179190848247 745.8943335102342 431.05179190848247L745.8943335102342 431.05179190848247L746.0930466057997 431.05179190848247Q747.9382396360503 431.05179190848247 751.20281192034 430.853078812917Q754.4673842046296 430.62597813227075 759.3784364236045 429.40531197379715L759.3784364236045 429.40531197379715Q771.0173463067242 426.339452785073 782.0601169031476 418.98706824915104L782.0601169031476 418.98706824915104Q783.9053099333981 417.76640209067756 798.2126528141112 403.45905920996455L798.2126528141112 403.45905920996455Q799.2346058770192 401.81257927527935 800.4552720354927 399.2576966180092Q801.6759381939663 396.702813960739 803.1237050330861 393.2395285808839L803.1237050330861 393.2395285808839Q803.3224181286515 390.769808678856 798.2126528141112 383.8432379191458L798.2126528141112 383.8432379191458Q794.5222667536099 378.9321857001709 793.9261274669134 378.3076588283938L793.9261274669134 378.3076588283938Q793.1028874995708 377.71151954169744 791.8822213410973 376.88827957435484Q790.6615551826238 376.06503960701224 788.6176490568076 375.24179963966964L788.6176490568076 375.24179963966964L785.5517898680833 373.82242038563055L782.88335687049 374.02113348119605Q781.2368769358048 372.99918041828795 778.7955446188579 372.80046732272257L778.7955446188579 372.80046732272257Q775.7296854301336 372.80046732272257 773.884492399883 371.97722735537997L773.884492399883 371.97722735537997Q773.0612524325403 371.7785142598145 771.8405862740668 371.35270048360275L771.8405862740668 371.35270048360275Q769.7966801482507 370.5578481013409 769.3992539571198 368.0881281993131L769.3992539571198 368.0881281993131L769.2005408615544 367.8894151037477Q768.9734401809081 365.4480827868006 771.0173463067242 359.71379060048315L771.0173463067242 359.71379060048315Q773.2883531131866 358.29441134644406 776.1271116212646 356.4492183161935Q778.9942577144233 354.6040252859428 782.6846437749247 352.1626929689957L782.6846437749247 352.1626929689957Q784.5298368051753 351.1407399060876 787.4821456535765 349.18199653551386Q790.4344545019775 347.25164075002084 794.1248405624789 343.98706846573117L794.1248405624789 343.98706846573117L797.588125942334 340.921209277007Q797.8152266229803 340.69410859636076 799.1210555366961 339.7857058737757Q800.4552720354927 338.8773031511908 801.07979890727 337.2308232165056L801.07979890727 337.2308232165056L803.1237050330861 334.1649640277814L804.1456580959941 332.3197709975307Q805.3663242544676 330.07715177614915 805.3663242544676 329.45262490437193L805.3663242544676 329.45262490437193L804.7417973826905 325.5919133333859L804.7417973826905 325.36481265273966Q804.7417973826905 324.1441464942662 802.3004650657434 323.3209065269236L802.3004650657434 323.3209065269236Q797.8152266229803 322.10024036845 796.7932735600722 321.5041010817536L796.7932735600722 321.5041010817536Q795.146793625387 320.4821480188456 791.0589813737547 318.52340464827176Q786.9711691221224 316.59304886277874 780.6407376491085 313.72590276962L780.6407376491085 313.72590276962Q770.8186332111587 309.24066432685686 765.1127286099221 304.52832520344737L765.1127286099221 304.52832520344737Q763.2675355796714 302.88184526876216 760.2016763909472 299.2198467933416L760.2016763909472 299.2198467933416Q758.9810102324736 298.1978937304335 758.9810102324736 296.15398760461744L758.9810102324736 296.15398760461744Q758.9810102324736 294.30879457436674 760.2016763909472 292.57715188443916Q761.4223425494207 290.8455091945116 762.6430087078942 290.8455091945116L762.6430087078942 290.8455091945116Q763.0688224841059 290.8455091945116 763.8636748663678 291.24293538564257L763.8636748663678 291.24293538564257Q766.3333947683956 293.0881284158932 768.3773008942118 296.15398760461744L768.3773008942118 296.15398760461744Q771.2444469873705 297.3746537630909 778.1710177470807 302.2857059820658L778.1710177470807 302.2857059820658L780.0162107773314 303.3076590449739Q782.88335687049 304.72703829901286 791.6835082455318 308.21871126394876L791.6835082455318 308.21871126394876Q798.4113659096766 311.0574697720267 800.4552720354927 313.10137589784284L800.4552720354927 313.10137589784284L808.0347572520609 317.81371502125234Q812.917421885955 320.8795742099765 812.917421885955 325.36481265273966L812.917421885955 325.36481265273966Q812.917421885955 330.07715177614915 808.6308965387573 337.34437355682866Q804.3443711915595 344.58320775242754 796.9919866556376 351.736879192784L796.9919866556376 351.736879192784Q795.5442198165179 353.1846460319038 792.4783606277937 355.2285521577199Q789.4125014390695 357.2724582835361 784.7285499007409 360.53703056782575L784.7285499007409 360.53703056782575L780.0162107773314 363.8016028521154Q782.2588299987129 363.8016028521154 787.1698822176878 365.0222690105889L787.1698822176878 365.0222690105889Q797.8152266229803 369.30879435778667 802.4991781613089 377.0869926699202L802.4991781613089 377.0869926699202L807.6089434758493 382.59418417559147Q810.6748026645735 386.9090971078701 810.078663377877 393.4382416764493L810.078663377877 393.4382416764493Q809.8515626972309 398.1505807998588 807.2115172847183 402.63581924262195L807.2115172847183 402.63581924262195L803.3224181286515 408.9662507156358L803.1237050330861 409.590777587413Q800.0578458443619 412.8553498717027 795.4590570612755 417.4541386547889Q790.8602682781892 422.0529274378752 784.5298368051753 427.9859327197582L784.5298368051753 427.9859327197582Q773.0612524325403 436.5589834141537 760.2016763909472 439.227416411747L760.2016763909472 439.227416411747Q756.5112903304458 440.0506563790896 753.5589814820447 440.4480825702205Q750.5782850485629 440.84550876135137 748.3356658271813 440.84550876135137ZM752.622191174379 409.9882037785439L752.622191174379 409.9882037785439Q750.8053857292091 409.9882037785439 749.783432666301 406.52491839868884L749.783432666301 406.52491839868884Q749.783432666301 405.7016784313461 749.5563319856548 404.3674619325496Q749.3576188900894 403.03324543375294 748.9601926989584 400.98933930793675L748.9601926989584 400.98933930793675Q748.5343789227467 398.94543318212067 748.2505030719389 397.3273408325162Q747.9382396360503 395.680860897831 748.1369527316158 394.2614816437919L748.1369527316158 394.2614816437919Q747.9382396360503 393.6369547720148 747.9382396360503 393.04081548531843Q747.9382396360503 392.4162886135413 747.9382396360503 391.7917617417641L747.9382396360503 391.7917617417641Q747.9382396360503 390.769808678856 748.0234023912927 389.8614059562711Q748.1369527316158 388.95300323368616 748.3356658271813 387.93105017077806L748.3356658271813 387.93105017077806Q748.9601926989584 383.2187110473687 748.9601926989584 381.5722311126835L748.9601926989584 381.5722311126835Q748.9601926989584 380.7773787304216 749.5563319856548 378.42120916871687Q750.180858857432 376.06503960701224 751.20281192034 371.97722735537997L751.20281192034 371.97722735537997Q752.8492918550252 366.2429351690624 753.8712449179333 361.1331698545221Q754.8931979808414 356.02340453998175 755.6880503631032 351.3394530016531L755.6880503631032 351.3394530016531Q756.5112903304458 348.07488071736344 757.4480806381115 342.73801472217684Q758.3564833606965 337.4295363120711 759.57714951917 330.27586487171453L759.57714951917 330.27586487171453Q759.7758626147355 327.8345325547676 760.5139398268358 323.43445686724664Q761.2236294538552 319.0343811797258 762.4442956123288 312.70394970671197L762.4442956123288 312.70394970671197Q763.6649617708023 307.59418439217166 766.5321078639611 307.59418439217166L766.5321078639611 307.59418439217166Q768.7747270853426 307.59418439217166 768.7747270853426 310.66004358089583L768.7747270853426 310.66004358089583Q768.7747270853426 311.28457045267294 768.7747270853426 311.88070973936937Q768.7747270853426 312.5052366111465 768.5760139897772 313.10137589784284L768.5760139897772 313.10137589784284Q768.5760139897772 315.14528202365904 767.3553478313037 321.9015272728846L767.3553478313037 321.9015272728846L765.7088678966185 330.90039174349175Q765.1127286099221 337.2308232165056 757.1358172022229 374.4185596723269L757.1358172022229 374.4185596723269Q756.3125772348803 377.0869926699202 755.2906241719722 382.1967579844606L755.2906241719722 382.1967579844606Q754.4673842046296 385.46133026875026 754.6660973001951 392.6150017091067L754.6660973001951 392.6150017091067Q754.6660973001951 393.6369547720148 754.9783607360837 396.3905505248504Q755.2906241719722 399.1725338627669 755.6880503631032 403.65777230553005L755.6880503631032 403.65777230553005L755.6880503631032 405.30425224021525Q755.6880503631032 409.9882037785439 752.622191174379 409.9882037785439ZM869.749367217676 426.5381658806385L869.749367217676 426.5381658806385Q868.7274141547679 426.5381658806385 867.9041741874253 425.7433134983766L867.9041741874253 425.7433134983766Q862.396982681754 420.00902131205913 862.1982695861885 408.9662507156358L862.1982695861885 408.9662507156358Q862.1982695861885 408.1430107482932 862.396982681754 407.0358949301428Q862.5956957773195 405.9003915269116 862.5956957773195 404.48101227287265L862.5956957773195 404.48101227287265L862.7944088728849 400.1944869256749L862.7944088728849 399.5699600538978Q862.7944088728849 395.8795739933964 860.1543634603723 396.9015270563045L860.1543634603723 396.9015270563045Q856.0665512087402 399.76867314946327 849.1967556191914 405.1907018998922Q842.3553476147235 410.6127306503211 832.76034385742 418.36254137737393L832.76034385742 418.36254137737393Q828.6725316057878 422.2516405334407 822.3421001327739 422.2516405334407L822.3421001327739 422.2516405334407Q818.6517140722725 422.2516405334407 816.0968314150024 418.2773786221316Q813.5419487577323 414.27472912574166 814.1664756295094 410.6127306503211L814.1664756295094 410.6127306503211Q814.7626149162057 405.30425224021525 818.453000976707 399.0589835224437Q822.1149994521277 392.8137148046722 827.5370282025566 386.5968336719814Q832.9590569529854 380.3515649542099 839.2043256707569 375.5540630755582Q845.4212068034477 370.7565611969064 851.1554989897653 368.7126550710903L851.1554989897653 368.7126550710903Q853.3981182111469 367.8894151037477 855.442024336963 367.4919889126167Q857.485930462779 367.066175136405 859.5298365885952 367.066175136405L859.5298365885952 367.066175136405Q868.329987963637 367.066175136405 868.329987963637 373.19789351385344L868.329987963637 373.19789351385344Q868.329987963637 375.24179963966964 866.6835080289517 375.24179963966964L866.6835080289517 375.24179963966964Q866.0589811571746 375.24179963966964 865.4628418704782 375.1566368844272Q864.8383149987011 375.04308654410414 864.2421757120047 374.64566035297315L864.2421757120047 374.64566035297315Q860.5517896515033 371.579801164249 857.485930462779 371.579801164249L857.485930462779 371.579801164249Q854.420071274055 371.579801164249 848.487065992172 375.24179963966964L848.487065992172 375.24179963966964Q843.8031144538434 378.1089457328283 839.2894884259994 382.3954710800261Q834.8042499832362 386.68199642722374 830.7164377316038 392.01886242241034L830.7164377316038 392.01886242241034Q826.827338575537 397.1286277369507 824.5847193541555 401.1028896482599Q822.3421001327739 405.077151559569 821.9162863565622 408.1430107482932L821.9162863565622 408.1430107482932Q821.7175732609967 408.9662507156358 821.7175732609967 410.1869168741094L821.7175732609967 410.1869168741094Q821.7175732609967 413.4798767434798 824.38600625859 413.4798767434798L824.38600625859 413.4798767434798Q827.6505785428797 413.4798767434798 836.6494430134868 407.5468714615968L836.6494430134868 407.5468714615968Q858.1104573345563 393.2395285808839 866.4847949333863 382.1967579844606L866.4847949333863 382.1967579844606Q868.5287010592024 379.5283249868673 870.1467934088068 375.04308654410414L870.1467934088068 375.04308654410414Q871.1687464717149 372.17594045094535 874.4617063410853 372.17594045094535L874.4617063410853 372.17594045094535Q878.1237048165059 372.17594045094535 878.1237048165059 376.2637527025776L878.1237048165059 376.2637527025776Q878.1237048165059 379.5283249868673 875.0578456277817 384.43937720584216L875.0578456277817 384.43937720584216Q870.1467934088068 399.3712469583323 870.1467934088068 405.077151559569L870.1467934088068 405.077151559569Q870.5726071850186 413.87730293461067 874.4617063410853 419.18578134471653L874.4617063410853 419.18578134471653Q875.0578456277817 419.81030821649364 875.0578456277817 420.83226127940173L875.0578456277817 420.83226127940173Q875.0578456277817 422.67745430965243 873.212652597531 424.60781009514545Q871.3958471523612 426.5381658806385 869.749367217676 426.5381658806385ZM904.8931975476811 438.0067502532734L904.8931975476811 438.0067502532734Q897.966626787971 438.2054633488389 893.963977291581 427.9859327197582Q889.9897153802718 417.76640209067756 889.9897153802718 397.3273408325162L889.9897153802718 397.3273408325162Q889.9897153802718 385.66004336431575 891.9200711657649 371.2675377283604Q893.8788145363387 356.84664450732436 897.7395261073247 339.4734424378872L897.7395261073247 339.4734424378872Q907.76034364084 293.28684151145865 921.8689734259875 293.28684151145865L921.8689734259875 293.28684151145865Q927.3761649316588 293.28684151145865 929.8458848336865 303.3076590449739L929.8458848336865 303.3076590449739Q931.6910778639373 310.85875667646127 931.06655099216 316.99047505390973L931.06655099216 316.99047505390973Q929.0226448663439 336.8333970253747 907.5616305452744 371.35270048360275L907.5616305452744 371.35270048360275Q906.1422512912355 372.99918041828795 904.1835079206617 375.66761341588125Q902.2531521351688 378.3076588283938 899.5847191375755 381.9980448888951L899.5847191375755 381.9980448888951Q899.1872929464445 386.68199642722374 898.8750295105559 391.19562245506773Q898.5627660746674 395.680860897831 898.5627660746674 399.76867314946327L898.5627660746674 399.76867314946327Q898.5627660746674 407.1210576853851 899.7834322331408 414.89925599751876L899.7834322331408 414.89925599751876Q902.0544390396032 426.9639796568502 906.5396774823664 426.9639796568502L906.5396774823664 426.9639796568502Q910.8262028295641 426.9639796568502 915.1127281767618 421.4284005660981L915.1127281767618 421.4284005660981L921.0457334586448 411.8333968087946Q922.0676865215529 410.1869168741094 923.7141664562381 410.1869168741094L923.7141664562381 410.1869168741094Q925.7580725820542 410.1869168741094 925.7580725820542 412.23082299992546L925.7580725820542 412.23082299992546Q925.7580725820542 412.6566367761372 925.6445222417311 413.05406296726807Q925.5593594864887 413.4798767434798 925.3322588058426 413.87730293461067L925.3322588058426 413.87730293461067Q923.089639584461 418.98706824915104 921.3579968945334 422.56390396932926Q919.6263542046058 426.1407396895075 918.1785873654861 428.1846458153237L918.1785873654861 428.1846458153237Q911.8481558924722 438.0067502532734 904.8931975476811 438.0067502532734ZM921.6702603304219 303.5063721405394L921.6702603304219 303.5063721405394Q907.5616305452744 309.63809051798773 900.6066722004833 370.95527429247187L900.6066722004833 370.95527429247187Q901.2311990722606 370.33074742069465 902.4518652307341 368.5139419755248L902.4518652307341 368.5139419755248Q925.1335457102771 336.2088701535975 925.1335457102771 316.99047505390973L925.1335457102771 316.99047505390973Q925.1335457102771 315.5710957998707 924.9348326147116 313.8394531099431Q924.7361195191462 312.0794228349348 924.3103057429345 309.83680361355323L924.3103057429345 309.83680361355323Q923.089639584461 304.329612107882 921.6702603304219 303.5063721405394ZM940.8886554301098 438.0067502532734L940.8886554301098 438.0067502532734Q933.9336970853188 438.2054633488389 929.9310475889289 427.9859327197582Q925.9567856776197 417.76640209067756 925.9567856776197 397.3273408325162L925.9567856776197 397.3273408325162Q925.9567856776197 385.66004336431575 927.8871414631127 371.2675377283604Q929.8458848336865 356.84664450732436 933.7349839897533 339.4734424378872L933.7349839897533 339.4734424378872Q943.7274139381879 293.28684151145865 957.8360437233353 293.28684151145865L957.8360437233353 293.28684151145865Q963.3716228140873 293.28684151145865 965.8129551310343 303.3076590449739L965.8129551310343 303.3076590449739Q967.6581481612851 310.85875667646127 967.0336212895079 316.99047505390973L967.0336212895079 316.99047505390973Q964.9897151636918 336.8333970253747 943.5287008426224 371.35270048360275L943.5287008426224 371.35270048360275Q942.1093215885834 372.99918041828795 940.1505782180095 375.66761341588125Q938.2202224325165 378.3076588283938 935.5517894349232 381.9980448888951L935.5517894349232 381.9980448888951Q935.1543632437923 386.68199642722374 934.8420998079038 391.19562245506773Q934.5298363720152 395.680860897831 934.5298363720152 399.76867314946327L934.5298363720152 399.76867314946327Q934.5298363720152 407.1210576853851 935.7788901155694 414.89925599751876L935.7788901155694 414.89925599751876Q938.021509336951 426.9639796568502 942.5067477797143 426.9639796568502L942.5067477797143 426.9639796568502Q946.793273126912 426.9639796568502 951.1081860591905 421.4284005660981L951.1081860591905 421.4284005660981L957.0128037559926 411.8333968087946Q958.0347568189007 410.1869168741094 959.681236753586 410.1869168741094L959.681236753586 410.1869168741094Q961.7251428794021 410.1869168741094 961.7251428794021 412.23082299992546L961.7251428794021 412.23082299992546Q961.7251428794021 412.6566367761372 961.611592539079 413.05406296726807Q961.5264297838366 413.4798767434798 961.3277166882712 413.87730293461067L961.3277166882712 413.87730293461067Q959.0567098818088 418.98706824915104 957.3250671918812 422.56390396932926Q955.5934245019537 426.1407396895075 954.1740452479147 428.1846458153237L954.1740452479147 428.1846458153237Q947.81522618982 438.0067502532734 940.8886554301098 438.0067502532734ZM957.6373306277698 303.5063721405394L957.6373306277698 303.5063721405394Q943.5287008426224 309.63809051798773 936.5737424978313 370.95527429247187L936.5737424978313 370.95527429247187Q937.1982693696085 370.33074742069465 938.418935528082 368.5139419755248L938.418935528082 368.5139419755248Q961.1006160076249 336.2088701535975 961.1006160076249 316.99047505390973L961.1006160076249 316.99047505390973Q961.1006160076249 315.5710957998707 960.9019029120595 313.8394531099431Q960.703189816494 312.0794228349348 960.305763625363 309.83680361355323L960.305763625363 309.83680361355323Q959.0567098818088 304.329612107882 957.6373306277698 303.5063721405394ZM977.8776787903657 427.1626927524156L977.8776787903657 427.1626927524156Q971.3201466367055 427.1626927524156 966.8349081939424 422.0529274378752L966.8349081939424 422.0529274378752Q962.7470959423102 417.34058831446583 962.7470959423102 411.4359706176637L962.7470959423102 411.4359706176637Q962.7470959423102 400.3932000212404 972.7679134758254 387.93105017077806L972.7679134758254 387.93105017077806Q976.8557257274578 382.59418417559147 981.5396772657863 378.5063719239592Q986.2520163891958 374.4185596723269 991.361781703736 371.15398738803725L991.361781703736 371.15398738803725Q992.3837347666441 370.5578481013409 994.2289277968949 370.5578481013409L994.2289277968949 370.5578481013409Q1000.1619330787777 370.5578481013409 1000.1619330787777 373.39660660941894L1000.1619330787777 373.39660660941894Q1000.1619330787777 374.21984657676154 998.9128793352235 375.24179963966964L998.9128793352235 375.24179963966964L998.9128793352235 375.440512735235Q1001.9787385239478 379.7554256675135 1005.0445977126718 384.43937720584216Q1008.1104569013961 389.15171632925166 1008.1104569013961 395.4821478022655L1008.1104569013961 395.4821478022655Q1008.1104569013961 400.79062621237125 1005.3568611485605 406.32620530312334Q1002.6032653957249 411.8333968087946 998.0044766126385 416.6308986874464Q993.4056878295522 421.4284005660981 988.0972094194464 424.2955466592569Q982.7887310093407 427.1626927524156 977.8776787903657 427.1626927524156ZM978.0763918859311 420.83226127940173L978.0763918859311 420.83226127940173Q983.1861572004715 420.63354818383624 988.9204493867891 416.6308986874464Q994.6263539880257 412.6566367761372 998.8277165799811 406.9223445898197Q1003.0006915868557 401.216439988583 1003.227792267502 396.1066746740426L1003.227792267502 396.1066746740426Q1003.6252184586328 388.12976326634356 995.0521677642374 378.1089457328283L995.0521677642374 378.1089457328283Q986.2520163891958 384.43937720584216 979.4957711399701 393.04081548531843L979.4957711399701 393.04081548531843Q971.5472473173519 403.45905920996455 971.5472473173519 411.8333968087946L971.5472473173519 411.8333968087946Q971.5472473173519 420.83226127940173 978.0763918859311 420.83226127940173ZM1060.031350014142 424.0968335636914L1060.031350014142 424.0968335636914Q1055.5461115713788 424.2955466592569 1053.0763916693509 418.78835515358566L1053.0763916693509 418.78835515358566Q1052.67896547822 417.76640209067756 1052.054438606443 415.29668218864975Q1051.4582993197469 412.8553498717027 1050.4363462568385 408.9662507156358L1050.4363462568385 408.9662507156358Q1049.613106289496 403.85648540109554 1047.7679132592452 404.87843846400364L1047.7679132592452 404.87843846400364Q1044.5033409749558 409.9882037785439 1038.3716225975072 416.11992215599236L1038.3716225975072 416.11992215599236Q1030.5934242853737 423.8981204681259 1026.7327127143876 423.8981204681259L1026.7327127143876 423.8981204681259Q1022.417799782109 423.8981204681259 1019.3519405933849 417.34058831446583L1019.3519405933849 417.34058831446583Q1016.7118951808724 412.23082299992546 1016.7118951808724 407.5468714615968L1016.7118951808724 407.5468714615968Q1016.7118951808724 391.7917617417641 1020.7997074325045 379.954138763079L1020.7997074325045 379.954138763079Q1021.8216604954126 377.4844188610512 1023.8655666212288 377.4844188610512L1023.8655666212288 377.4844188610512Q1025.7107596514793 377.4844188610512 1027.3288520010838 379.3296118913019Q1028.9753319357692 381.1748049215525 1028.9753319357692 383.4174241429342L1028.9753319357692 383.4174241429342Q1028.9753319357692 384.63809030140766 1027.3288520010838 388.32847636190905L1027.3288520010838 388.32847636190905Q1023.4397528450171 395.8795739933964 1023.4397528450171 405.30425224021525L1023.4397528450171 405.30425224021525Q1023.4397528450171 415.523782869296 1027.3288520010838 415.523782869296L1027.3288520010838 415.523782869296Q1029.1740450313346 415.523782869296 1036.327716471691 409.590777587413L1036.327716471691 409.590777587413Q1048.988579417719 398.7467200865552 1054.524158508471 381.373518017118L1054.524158508471 381.373518017118Q1055.5461115713788 378.9321857001709 1057.7887307927604 378.9321857001709L1057.7887307927604 378.9321857001709Q1061.479116853262 378.9321857001709 1061.479116853262 381.9980448888951L1061.479116853262 381.9980448888951Q1061.479116853262 384.0419510147113 1060.9681403218078 386.48328333165836Q1060.4571637903537 388.95300323368616 1059.4352107274458 392.01886242241034L1059.4352107274458 392.01886242241034Q1058.6119707601033 395.0847216111346 1058.1861569838916 397.5260539280816Q1057.7887307927604 399.96738624502865 1057.7887307927604 402.01129237084484L1057.7887307927604 402.01129237084484Q1057.7887307927604 403.45905920996455 1057.987443888326 405.38941499545757Q1058.1861569838916 407.34815836603144 1058.6119707601033 409.590777587413L1058.6119707601033 409.590777587413Q1059.6339238230112 415.72249596486137 1060.8545899814849 416.74444902776946L1060.8545899814849 416.74444902776946Q1060.8545899814849 416.74444902776946 1063.012046447624 415.6089456245383Q1065.1411153286826 414.5018298063879 1067.894711081518 413.16761330759124Q1070.6766944194346 411.8333968087946 1072.6070502049274 410.69789340556343Q1074.5374059904207 409.590777587413 1074.5374059904207 409.590777587413L1074.5374059904207 409.590777587413Q1076.5813121162369 409.590777587413 1076.5813121162369 411.2088699370175L1076.5813121162369 411.2088699370175Q1076.5813121162369 412.8553498717027 1073.2315770767045 415.92120906042686Q1069.8534544520917 418.98706824915104 1065.9643552960251 421.4284005660981Q1062.0752561399581 423.8981204681259 1060.031350014142 424.0968335636914ZM1083.1388442698967 428.1846458153237L1083.1388442698967 428.1846458153237Q1081.4923643352115 428.1846458153237 1080.158147836415 427.3614058479811Q1078.852318922699 426.5381658806385 1078.852318922699 423.2735935963488L1078.852318922699 423.2735935963488Q1078.852318922699 419.81030821649364 1080.158147836415 417.056712463658Q1081.4923643352115 414.27472912574166 1083.5362704610275 414.27472912574166L1083.5362704610275 414.27472912574166Q1088.4473226800028 414.27472912574166 1088.4473226800028 420.63354818383624L1088.4473226800028 420.63354818383624Q1088.4473226800028 423.8981204681259 1087.0279434259637 426.0271893491844Q1085.5801765868437 428.1846458153237 1083.1388442698967 428.1846458153237ZM1107.0411909079132 424.920073531034L1107.0411909079132 424.920073531034Q1103.1520917518465 424.920073531034 1103.1520917518465 421.03097437496723L1103.1520917518465 421.03097437496723Q1103.3791924324928 412.4579236805717 1104.9972847820973 400.3932000212404L1104.9972847820973 400.3932000212404Q1106.0192378450051 392.6150017091067 1106.8424778123476 387.30652329900096Q1107.6657177796903 381.9980448888951 1107.864430875256 379.3296118913019L1107.864430875256 379.3296118913019Q1108.2618570663867 376.4624657981431 1110.7315769684146 376.4624657981431L1110.7315769684146 376.4624657981431Q1112.9741961897962 376.4624657981431 1112.9741961897962 379.1308987957364L1112.9741961897962 379.1308987957364Q1112.9741961897962 386.48328333165836 1112.9741961897962 391.0820721147447Q1112.9741961897962 395.680860897831 1112.7754830942308 397.5260539280816L1112.7754830942308 397.5260539280816L1112.7754830942308 397.92348011921257Q1112.7754830942308 399.96738624502865 1114.3935754438353 399.96738624502865L1114.3935754438353 399.96738624502865Q1115.2168154111778 399.96738624502865 1116.0400553785205 398.7467200865552L1116.0400553785205 398.7467200865552Q1123.3924399144423 387.30652329900096 1131.9938781939186 387.30652329900096L1131.9938781939186 387.30652329900096Q1135.8545897649046 387.30652329900096 1137.6997827951554 392.6150017091067L1137.6997827951554 392.6150017091067Q1138.1255965713672 393.6369547720148 1138.8352861983865 396.3905505248504Q1139.544975825406 399.1725338627669 1140.3682157927487 403.65777230553005L1140.3682157927487 403.65777230553005Q1140.9643550794449 406.32620530312334 1143.008261205261 406.32620530312334L1143.008261205261 406.32620530312334Q1144.2573149488153 406.32620530312334 1146.3012210746315 404.87843846400364L1146.3012210746315 404.87843846400364Q1147.3231741375396 404.28229917730715 1149.452243018598 402.63581924262195Q1151.6096994847373 400.98933930793675 1154.874271769027 398.3492938954243L1154.874271769027 398.3492938954243Q1168.7841884586092 387.50523639456645 1171.6229469666869 387.50523639456645L1171.6229469666869 387.50523639456645Q1176.533999185662 387.50523639456645 1179.2024321832553 402.83453233818744L1179.2024321832553 402.83453233818744Q1181.6437645002022 415.92120906042686 1184.5109105933611 415.92120906042686L1184.5109105933611 415.92120906042686Q1185.3341505607036 415.92120906042686 1187.9741959732162 416.5457359322041L1187.9741959732162 416.5457359322041Q1190.4439158752439 416.74444902776946 1191.0400551619405 416.5457359322041L1191.0400551619405 416.5457359322041Q1191.465868938152 416.31863525155774 1191.863295129283 416.2334724963154Q1192.2891089054947 416.11992215599236 1192.6865350966257 416.11992215599236L1192.6865350966257 416.11992215599236Q1195.3549680942187 416.11992215599236 1195.3549680942187 418.58964205802016L1195.3549680942187 418.58964205802016Q1195.3549680942187 421.4284005660981 1190.8413420663749 423.2735935963488L1190.8413420663749 423.2735935963488Q1187.5767697820852 424.7213604354685 1182.6657175631103 424.0968335636914L1182.6657175631103 424.0968335636914Q1177.9817660247818 424.0968335636914 1174.9159068360575 417.76640209067756L1174.9159068360575 417.76640209067756Q1173.666853092503 414.89925599751876 1171.225520775556 405.9003915269116L1171.225520775556 405.9003915269116Q1169.579040840871 399.3712469583323 1167.762235395701 399.3712469583323L1167.762235395701 399.3712469583323Q1165.2925154936731 399.3712469583323 1160.6085639553444 402.01129237084484Q1155.8962248319351 404.67972536843814 1151.1838857085258 408.1430107482932Q1146.4999341701969 411.6346837132291 1143.6327880770382 414.7005429019534L1143.6327880770382 414.7005429019534Q1142.8095481096957 415.72249596486137 1140.5669288883141 415.72249596486137L1140.5669288883141 415.72249596486137Q1136.081690445551 415.72249596486137 1135.4571635737739 413.6785898390453L1135.4571635737739 413.6785898390453Q1131.5680644177069 398.7467200865552 1128.9280190051945 398.7467200865552L1128.9280190051945 398.7467200865552Q1122.1717737559688 398.7467200865552 1116.863295345863 407.34815836603144L1116.863295345863 407.34815836603144Q1115.4155285067432 409.590777587413 1113.9961492527043 413.25277606283356Q1112.5767699986654 416.94316212333496 1110.93029006398 422.2516405334407L1110.93029006398 422.2516405334407Q1110.1070500966375 424.2955466592569 1109.5109108099412 423.8981204681259L1109.5109108099412 423.8981204681259Q1108.488957747033 424.920073531034 1107.0411909079132 424.920073531034ZM1219.0586016366697 428.38335891088917L1219.0586016366697 428.38335891088917Q1210.0597371660629 428.38335891088917 1204.4389953200684 422.8761674052179Q1198.818253474074 417.34058831446583 1198.818253474074 407.9442976527278L1198.818253474074 407.9442976527278Q1198.818253474074 405.9003915269116 1199.1305169099626 403.85648540109554Q1199.4427803458511 401.81257927527935 1199.840206536982 399.76867314946327L1199.840206536982 399.76867314946327Q1202.0828257583635 390.99690935950235 1212.3023563874444 380.9760918259871L1212.3023563874444 380.9760918259871Q1223.7425531749986 370.13203432512927 1232.1452783589093 370.13203432512927L1232.1452783589093 370.13203432512927Q1239.0718491186194 370.13203432512927 1238.6744229274886 377.9102326372628L1238.6744229274886 377.9102326372628Q1238.4757098319233 387.93105017077806 1227.6316523310652 397.5260539280816L1227.6316523310652 397.5260539280816Q1222.9477007927367 401.41515308414847 1217.9230982334384 404.67972536843814Q1212.9268832592215 407.9442976527278 1207.391304168469 407.9442976527278L1207.391304168469 407.9442976527278L1207.1925910729037 407.9442976527278Q1207.8171179446808 421.2296874705326 1220.9037946669205 421.2296874705326L1220.9037946669205 421.2296874705326Q1225.1903200141182 421.2296874705326 1230.4987984242239 419.18578134471653L1230.4987984242239 419.18578134471653Q1230.8962246153546 418.98706824915104 1231.7194645826976 418.98706824915104L1231.7194645826976 418.98706824915104Q1234.3878975802909 418.98706824915104 1234.3878975802909 421.65550124674434L1234.3878975802909 421.65550124674434Q1234.3878975802909 423.4723066919143 1232.54270455004 424.4942597548223L1232.54270455004 424.4942597548223Q1226.8084123637227 428.38335891088917 1219.0586016366697 428.38335891088917ZM1212.7281701636562 398.3492938954243L1212.7281701636562 398.3492938954243Q1219.0586016366697 396.9015270563045 1223.5438400794333 393.04081548531843L1223.5438400794333 393.04081548531843Q1231.5207514871322 386.28457023609286 1231.5207514871322 380.1528518586445L1231.5207514871322 380.1528518586445L1231.5207514871322 379.7554256675135Q1231.5207514871322 378.3076588283938 1230.4987984242239 377.4844188610512Q1229.476845361316 376.68956647878935 1229.0794191701852 377.0869926699202L1229.0794191701852 377.0869926699202Q1222.7206001120903 377.0869926699202 1215.5669286717339 386.28457023609286L1215.5669286717339 386.28457023609286Q1214.544975608826 387.70394949013183 1213.125596354787 390.0601190518366Q1211.7062171007478 392.4162886135413 1210.0597371660629 395.680860897831L1210.0597371660629 395.680860897831Q1209.861024070497 396.1066746740426 1209.861024070497 396.5041008651736L1209.861024070497 396.5041008651736Q1209.861024070497 398.3492938954243 1212.7281701636562 398.3492938954243Z " fill="#c2b280" transform="matrix(0.7063879973128768,0,0,0.7063879973128768,0,41.571144240584985)"/></g></svg>